<svg width="321" height="332" viewBox="0 0 321 332" fill="none" xmlns="http://www.w3.org/2000/svg">
<path d="M292.755 217.99C285.061 212.305 278.181 205.597 272.303 198.052V222.088C275.72 225.27 279.312 228.258 283.064 231.037C297.464 241.707 303.858 256.431 300.171 270.422C299.417 273.294 298.259 276.045 296.734 278.593L296.745 278.615L296.721 278.586C291.863 286.704 283.346 292.755 272.303 295.879V312.611C285.872 309.612 297.273 303.155 305.229 294.241V294.227L305.24 294.246C310.307 288.622 313.963 281.874 315.904 274.56C321.258 254.218 312.393 232.542 292.755 217.99Z" fill="#8C87A5"/>
<path d="M290.052 215.909C283.44 210.69 277.481 204.694 272.303 198.052V222.088C275.72 225.27 279.312 228.258 283.064 231.037C285.564 232.88 287.902 234.934 290.052 237.174V215.909Z" fill="#2B5742"/>
<path d="M272.303 292.778L76.8311 280.723L82.2629 55.2307L272.303 55.3175V292.778Z" fill="#E6EAFF"/>
<path d="M194.744 180.328C193.629 183.986 191.326 187.17 188.199 189.377C184.453 192.071 181.142 195.323 178.385 199.021L182.957 210.471C184.26 208.337 185.731 206.311 187.356 204.411C192.154 198.91 198.912 195.496 206.192 194.897C218.513 193.774 241.443 187.373 241.02 155.226C241.02 155.232 203.572 150.012 194.744 180.328Z" fill="#2B5742"/>
<path d="M119.272 158.353C119.272 158.353 121.8 195.481 164.408 203.521C167.248 204.036 169.818 205.527 171.673 207.736C173.528 209.945 174.551 212.733 174.564 215.616V244.205H185.867V205.597C185.884 197.472 183.298 189.555 178.487 183.003C169.498 170.826 151.388 154.928 119.272 158.353Z" fill="#A7EACA"/>
<path d="M76.8311 292.778C76.8311 292.778 94.7209 267.107 127.255 246.284C132.748 242.757 138.992 240.566 145.486 239.888L167.193 237.654C175.31 236.817 183.5 238.249 190.849 241.791L196.813 244.667C200.039 246.233 203.448 247.394 206.96 248.122C218.621 250.506 249.708 259.808 264.035 292.773L76.8311 292.778Z" fill="#958C8D"/>
<path d="M272.303 276.66H110.835C108.277 276.66 105.745 276.157 103.382 275.179C101.019 274.202 98.8715 272.769 97.063 270.962C95.2545 269.156 93.8199 267.011 92.8412 264.651C91.8624 262.291 91.3588 259.761 91.3589 257.206V89.1338C91.3577 83.2286 93.6043 77.5439 97.6433 73.2317C101.682 68.9194 107.212 66.3023 113.111 65.9108L272.303 55.3174V39.2221H63.9994V292.778H272.303V276.66ZM44.9914 187.754L45.0949 187.63C52.0922 179.227 58.4082 170.705 63.9994 162.563V124.443C53.916 142.09 42.3779 158.868 29.5048 174.601C21.8718 183.826 15.307 193.883 9.93562 204.581C6.24101 212.116 4.10175 220.317 3.64514 228.696C3.18852 237.074 4.4239 245.458 7.27774 253.35C12.9632 268.948 24.7761 280.361 39.4395 287.825C49.1309 292.76 63.9952 292.781 63.9952 292.781V271.222C58.2721 271.52 52.5545 270.538 47.2599 268.347C37.32 263.966 30.154 256.75 26.3799 246.398C24.4587 241.079 23.6281 235.429 23.9376 229.783C24.2471 224.137 25.6904 218.611 28.1816 213.534C32.8195 204.35 38.4568 195.705 44.9914 187.754Z" fill="#2B5742"/>
<path d="M141.428 258.32C143.663 258.32 145.474 256.511 145.474 254.279C145.474 252.046 143.663 250.237 141.428 250.237C139.193 250.237 137.382 252.046 137.382 254.279C137.382 256.511 139.193 258.32 141.428 258.32Z" fill="#B6FFCA"/>
<path d="M162.951 254.279C165.186 254.279 166.997 252.469 166.997 250.237C166.997 248.005 165.186 246.195 162.951 246.195C160.716 246.195 158.905 248.005 158.905 250.237C158.905 252.469 160.716 254.279 162.951 254.279Z" fill="#B6FFCA"/>
<path d="M154.477 266.737C156.712 266.737 158.524 264.927 158.524 262.695C158.524 260.463 156.712 258.653 154.477 258.653C152.242 258.653 150.431 260.463 150.431 262.695C150.431 264.927 152.242 266.737 154.477 266.737Z" fill="#B6FFCA"/>
<path d="M274.825 39.2222H87.354C87.354 39.2222 66.1488 39.2222 66.1488 21.3853C66.1488 3.5484 87.354 3.5484 87.354 3.5484H274.825C276.276 3.5484 277.714 3.83411 279.055 4.3892C280.396 4.94429 281.615 5.75788 282.641 6.7835C283.668 7.80913 284.482 9.02668 285.037 10.3666C285.592 11.7065 285.877 13.1426 285.876 14.5927V28.1831C285.876 31.1109 284.712 33.9187 282.639 35.9889C280.567 38.0592 277.756 39.2222 274.825 39.2222Z" fill="white"/>
<path d="M76.302 28.1831V14.5927C76.3013 13.1426 76.5867 11.7065 77.1418 10.3666C77.6969 9.02668 78.5109 7.80913 79.5372 6.7835C80.5635 5.75788 81.7821 4.94429 83.1233 4.3892C84.4645 3.83411 85.9021 3.5484 87.3539 3.5484H61.4781C60.0263 3.5484 58.5887 3.83411 57.2475 4.3892C55.9063 4.94429 54.6877 5.75788 53.6614 6.7835C52.635 7.80913 51.8211 9.02668 51.266 10.3666C50.7108 11.7065 50.4255 13.1426 50.4262 14.5927V28.1831C50.4262 31.1109 51.5906 33.9187 53.6632 35.9889C55.7358 38.0592 58.5469 39.2222 61.4781 39.2222H87.3539C84.4228 39.2222 81.6117 38.0592 79.539 35.9889C77.4664 33.9187 76.302 31.1109 76.302 28.1831Z" fill="#2B5742"/>
<path d="M274.825 328.452H87.354C87.354 328.452 66.1488 328.452 66.1488 310.615C66.1488 292.778 87.354 292.778 87.354 292.778H274.825C277.756 292.778 280.567 293.941 282.639 296.011C284.712 298.081 285.876 300.889 285.876 303.817V317.407C285.877 318.858 285.592 320.294 285.037 321.633C284.482 322.973 283.668 324.191 282.641 325.217C281.615 326.242 280.396 327.056 279.055 327.611C277.714 328.166 276.276 328.452 274.825 328.452Z" fill="white"/>
<path d="M76.302 317.407V303.817C76.302 300.889 77.4664 298.081 79.539 296.011C81.6117 293.941 84.4228 292.778 87.3539 292.778H61.4781C58.5469 292.778 55.7358 293.941 53.6632 296.011C51.5906 298.081 50.4262 300.889 50.4262 303.817V317.407C50.4262 320.335 51.5906 323.143 53.6632 325.213C55.7358 327.283 58.5469 328.447 61.4781 328.447H87.3539C84.4228 328.447 81.6117 327.283 79.539 325.213C77.4664 323.143 76.302 320.335 76.302 317.407Z" fill="#2B5742"/>
<path d="M242.293 71.2432H242.292C236.498 71.2432 231.801 75.9346 231.801 81.7217V127.738C231.801 133.525 236.498 138.216 242.292 138.216H242.293C248.087 138.216 252.784 133.525 252.784 127.738V81.7217C252.784 75.9346 248.087 71.2432 242.293 71.2432Z" fill="white"/>
<path d="M229.768 26.8199C232.773 26.8199 235.209 24.3867 235.209 21.3852C235.209 18.3837 232.773 15.9504 229.768 15.9504C226.763 15.9504 224.327 18.3837 224.327 21.3852C224.327 24.3867 226.763 26.8199 229.768 26.8199Z" fill="#2B5742"/>
<path d="M256.741 26.8199C259.746 26.8199 262.182 24.3867 262.182 21.3852C262.182 18.3837 259.746 15.9504 256.741 15.9504C253.736 15.9504 251.3 18.3837 251.3 21.3852C251.3 24.3867 253.736 26.8199 256.741 26.8199Z" fill="#2B5742"/>
<path d="M294.875 215.136C288.223 210.215 282.195 204.505 276.923 198.131C276.629 197.775 276.268 197.48 275.861 197.263V42.7229C279.544 42.4596 282.991 40.814 285.509 38.1166C288.027 35.4193 289.429 31.8701 289.435 28.182V14.5926C289.43 10.7237 287.89 7.01452 285.151 4.27885C282.411 1.54318 278.698 0.00437911 274.824 0H61.4781C57.6047 0.00437964 53.8913 1.54322 51.1524 4.27891C48.4135 7.01461 46.8729 10.7238 46.8685 14.5926V28.182C46.8742 31.8699 48.2769 35.419 50.7947 38.1163C53.3125 40.8136 56.7589 42.4594 60.4416 42.7229V123.536C60.4013 123.598 60.3505 123.649 60.3122 123.715C50.4811 140.791 39.2719 157.039 26.7961 172.295C18.9698 181.742 12.2434 192.047 6.74653 203.011C2.8415 210.977 0.580436 219.646 0.0978581 228.502C-0.38472 237.358 0.921047 246.221 3.93747 254.563C9.55145 269.961 21.2702 282.557 37.8273 290.989C41.6704 292.835 45.7484 294.148 49.9478 294.89C47.9531 297.439 46.8692 300.582 46.8685 303.818V317.407C46.8729 321.276 48.4135 324.985 51.1524 327.721C53.8913 330.457 57.6047 331.996 61.4781 332H274.824C278.698 331.996 282.411 330.457 285.151 327.721C287.89 324.985 289.43 321.276 289.435 317.407V310.383C304.767 302.869 315.369 290.526 319.34 275.456C325.078 253.686 315.706 230.57 294.875 215.136ZM278.639 289.747C277.731 289.5 276.801 289.343 275.863 289.277V229.919C277.526 231.285 279.221 232.609 280.948 233.89C294.135 243.663 300.037 256.982 296.733 269.518C294.411 278.314 288.155 285.294 278.639 289.747ZM67.559 289.229V42.7757H268.746V51.9925L112.87 62.3656C106.078 62.8347 99.7151 65.8569 95.0636 70.8236C90.4121 75.7903 87.8172 82.3328 87.8012 89.1339V257.206C87.8078 263.306 90.2365 269.154 94.5545 273.467C98.8725 277.78 104.727 280.206 110.834 280.213H268.746V289.224L67.559 289.229ZM60.4437 267.648C56.4054 267.535 52.4236 266.671 48.7022 265.1C44.3204 263.291 40.3675 260.583 37.099 257.152C33.8306 253.721 31.3192 249.643 29.7274 245.182C27.9687 240.314 27.2086 235.142 27.4921 229.974C27.7756 224.807 29.0971 219.749 31.3778 215.102C35.8846 206.195 41.3504 197.806 47.6782 190.083L47.8314 189.901C52.2008 184.638 56.4062 179.241 60.4416 173.718L60.4437 267.648ZM165.069 200.025C132.82 193.938 125.117 170.525 123.336 161.572C150.814 159.888 166.893 173.28 175.624 185.108C179.97 191.056 182.311 198.229 182.31 205.592V235.085C180.927 234.771 179.531 234.519 178.126 234.331V215.616C178.107 211.905 176.793 208.318 174.409 205.471C172.026 202.625 168.723 200.699 165.069 200.025ZM188.742 198.151C188.502 196.815 188.198 195.491 187.831 194.184C188.627 193.511 189.446 192.866 190.288 192.25C194.048 189.573 196.815 185.728 198.157 181.316C204.692 158.873 228.737 158.022 237.418 158.479C236.432 183.264 219.891 190.081 205.865 191.36C199.612 191.892 193.656 194.256 188.742 198.155V198.151ZM189.303 244.992L195.267 247.869C198.757 249.562 202.443 250.817 206.242 251.604C213.897 253.169 232.071 258.269 246.63 273.102H110.834C107.668 273.106 104.573 272.161 101.95 270.389C110.385 262.563 119.496 255.497 129.176 249.272C134.203 246.051 139.913 244.047 145.852 243.418L167.557 241.184C175.02 240.417 182.549 241.737 189.303 244.997V244.992ZM256.175 273.102C239.68 253.011 216.802 246.508 207.674 244.642C204.449 243.973 201.318 242.907 198.356 241.468L192.392 238.592C191.414 238.12 190.422 237.683 189.416 237.281V207.472C189.442 207.443 189.473 207.423 189.498 207.393C189.679 207.173 189.865 206.95 190.056 206.728C194.243 201.921 200.151 198.947 206.51 198.447C218.107 197.389 245.044 191.057 244.572 155.19C244.561 154.341 244.245 153.524 243.683 152.887C243.12 152.25 242.348 151.835 241.506 151.718C241.104 151.661 200.898 146.455 191.323 179.34C190.423 182.238 188.589 184.758 186.106 186.506C185.785 186.738 185.477 186.989 185.161 187.23C184.084 185.009 182.806 182.891 181.343 180.902C172.98 169.567 153.736 151.108 118.89 154.824C117.976 154.922 117.134 155.37 116.543 156.073C115.951 156.777 115.656 157.682 115.718 158.599C116.562 166.052 118.968 173.244 122.778 179.706C128.586 189.738 140.408 202.614 163.742 207.019C165.765 207.385 167.597 208.444 168.923 210.015C170.248 211.585 170.983 213.568 171.001 215.622V233.895C169.61 233.916 168.216 233.976 166.823 234.119L145.118 236.353C138.072 237.096 131.296 239.472 125.332 243.292C115.29 249.749 105.839 257.079 97.0898 265.198C95.666 262.775 94.9153 260.016 94.9155 257.206V89.1339C94.9272 84.1342 96.835 79.3245 100.255 75.6735C103.674 72.0225 108.352 69.8013 113.346 69.4571L268.745 59.1151V273.106L256.175 273.102ZM282.319 14.5926V28.182C282.317 30.1667 281.526 32.0694 280.121 33.4727C278.716 34.8761 276.811 35.6654 274.824 35.6676H86.3485C81.6457 35.6676 79.8596 31.7376 79.8596 28.182V14.5926C79.8596 11.1239 81.8859 7.10705 86.2429 7.10705H274.824C276.811 7.10924 278.716 7.8986 280.121 9.30194C281.526 10.7053 282.317 12.608 282.319 14.5926ZM53.9849 28.182V14.5926C53.9868 12.6081 54.7768 10.7054 56.1816 9.302C57.5864 7.89863 59.4912 7.10924 61.4781 7.10705H74.7996C73.451 9.37133 72.7408 11.9579 72.7443 14.5926V28.182C72.7472 30.8203 73.4692 33.4081 74.8328 35.6676H61.476C59.4895 35.6649 57.5853 34.8752 56.1809 33.4719C54.7765 32.0686 53.9868 30.1662 53.9849 28.182ZM10.6241 252.131C7.93351 244.689 6.76905 236.783 7.20005 228.883C7.63105 220.983 9.64869 213.251 13.1329 206.146C18.3702 195.695 24.7805 185.874 32.2403 176.87C42.534 164.347 51.9565 151.134 60.4416 137.325V161.457C54.5523 169.974 32.2103 197.296 24.9914 211.967C22.2899 217.475 20.725 223.469 20.3899 229.593C20.0548 235.717 20.9563 241.845 23.0407 247.614C27.0581 258.636 34.7242 266.704 45.8279 271.598C50.4559 273.563 55.4145 274.635 60.4416 274.757V289.277C60.4033 289.277 60.364 289.277 60.3257 289.283C59.9659 289.118 59.5808 289.016 59.1867 288.979C54.8846 288.621 46.8064 287.583 41.0578 284.656C26.1345 277.057 15.6106 265.809 10.6241 252.131ZM53.9041 317.292L54.0604 303.698C54.0853 301.714 54.8973 299.82 56.3182 298.433C57.7391 297.046 59.6529 296.279 61.6396 296.299L74.9839 296.452C73.5988 298.698 72.8505 301.277 72.8189 303.914L72.6646 317.511C72.641 320.15 73.3356 322.745 74.6743 325.02L61.3176 324.866C59.3297 324.842 57.4326 324.031 56.0431 322.611C54.6536 321.19 53.8854 319.277 53.9072 317.292H53.9041ZM282.315 317.413C282.312 319.397 281.522 321.3 280.117 322.703C278.712 324.107 276.807 324.896 274.82 324.898H85.5233C82.0578 324.898 79.8596 320.488 79.8596 317.413V303.818C79.8596 300.398 82.6998 296.332 86.1197 296.332H274.824C276.811 296.335 278.716 297.124 280.121 298.527C281.526 299.931 282.317 301.833 282.319 303.818L282.315 317.413ZM312.454 273.652C309.287 285.676 301.153 295.735 289.358 302.403C289.053 299.303 287.757 296.383 285.663 294.075C294.821 288.684 301.123 280.759 303.608 271.329C307.679 255.882 300.789 239.753 285.178 228.186C281.946 225.789 278.836 223.232 275.859 220.526V207.685C280.377 212.507 285.322 216.911 290.634 220.844C309.08 234.511 317.44 254.746 312.458 273.652H312.454Z" fill="#2B5742"/>
</svg>
