<svg width="36" height="46" viewBox="0 0 36 46" fill="none" xmlns="http://www.w3.org/2000/svg">
<path d="M16.425 38.6375H19.8V27.3313L24.4125 31.9438L26.775 29.5813L18 21.0312L9.3375 29.6938L11.7 32.0562L16.425 27.3313V38.6375ZM3.375 45.5C2.475 45.5 1.6875 45.1625 1.0125 44.4875C0.3375 43.8125 0 43.025 0 42.125V3.875C0 2.975 0.3375 2.1875 1.0125 1.5125C1.6875 0.8375 2.475 0.5 3.375 0.5H23.6812L36 12.8187V42.125C36 43.025 35.6625 43.8125 34.9875 44.4875C34.3125 45.1625 33.525 45.5 32.625 45.5H3.375ZM21.9937 14.3375V3.875H3.375V42.125H32.625V14.3375H21.9937ZM3.375 3.875V14.3375V3.875V42.125V3.875Z" fill="white"/>
</svg>
